<svg xmlns="http://www.w3.org/2000/svg" viewBox="0 0 1063.24 1068.36"><g id="Layer_1" data-name="Layer 1"><path d="M1450.3,549.68a513.59,513.59,0,0,1-91.77,293.9c-92.45,133.16-246,220.27-419.86,220.27a507.41,507.41,0,0,1-280.52-84.12A514.35,514.35,0,0,1,427.06,549.68c0-284,229.06-514.19,511.61-514.19S1450.3,265.7,1450.3,549.68Z" transform="translate(-407.06 -15.49)" style="fill:#fff;stroke:#000;stroke-miterlimit:10;stroke-width:40px"/><path d="M1358.53,843.58c-94.53,135.48-253.64,220.27-431.37,220.27-105.91,0-205.8-47-288.16-101.16-.88-5.14,0,5.24,0,0,0-106.15,181.62-192.2,405.65-192.2C1170,770.49,1284.12,801.26,1358.53,843.58Z" transform="translate(-407.06 -15.49)" style="fill:none;stroke:#000;stroke-miterlimit:10;stroke-width:18px"/></g><g id="Layer_2" data-name="Layer 2"><path d="M1253.38,533.18c0,131.06-106.25,237.31-237.31,237.31S778.75,664.24,778.75,533.18A237.6,237.6,0,0,1,878.1,340.07a237.2,237.2,0,0,1,49.06-27A236.12,236.12,0,0,1,977.58,299c7.67-1.24,15.45-2.13,23.34-2.62q7.51-.48,15.15-.48,6,0,12,.3a238,238,0,0,1,24.07,2.43,236.29,236.29,0,0,1,102,41.54,238.17,238.17,0,0,1,76,90.49,236.14,236.14,0,0,1,23.25,102.56Z" transform="translate(-407.06 -15.49)" style="fill:#fff;stroke:#000;stroke-miterlimit:10;stroke-width:18px"/><path d="M1241.52,246.61V458.9A236.79,236.79,0,0,0,1205.37,390a238.19,238.19,0,0,0-74.8-64.78,236.43,236.43,0,0,0-102.48-29.1q-6-.3-12-.3-7.64,0-15.15.48c-7.89.49-15.67,1.38-23.34,2.62A235.86,235.86,0,0,0,900,326.14a233.66,233.66,0,0,0-21.9,13.93A238.17,238.17,0,0,0,802,430.62,235.63,235.63,0,0,0,792.66,453V246.61Z" transform="translate(-407.06 -15.49)" style="fill:#fff;stroke:#000;stroke-miterlimit:10;stroke-width:18px"/><path d="M878.1,246.61v93.46a238.51,238.51,0,0,0-27.16,22.67V246.61Z" transform="translate(-407.06 -15.49)" style="fill:#fff;stroke:#000;stroke-miterlimit:10;stroke-width:18px"/><path d="M927.16,246.61v66.47A235.52,235.52,0,0,0,900,326.14V246.61Z" transform="translate(-407.06 -15.49)" style="fill:#fff;stroke:#000;stroke-miterlimit:10;stroke-width:18px"/><path d="M977.58,249.13V299a237.07,237.07,0,0,0-27.16,6.1V249.13Z" transform="translate(-407.06 -15.49)" style="fill:#fff;stroke:#000;stroke-miterlimit:10;stroke-width:18px"/><path d="M1028.09,249.13v47q-6-.3-12-.3-7.64,0-15.15.48V249.13Z" transform="translate(-407.06 -15.49)" style="fill:#fff;stroke:#000;stroke-miterlimit:10;stroke-width:18px"/><path d="M1079.33,249.13v55.26a234.86,234.86,0,0,0-27.17-5.8V249.13Z" transform="translate(-407.06 -15.49)" style="fill:#fff;stroke:#000;stroke-miterlimit:10;stroke-width:18px"/><path d="M1130.57,249.13v76.13a235.78,235.78,0,0,0-27.17-12.81V249.13Z" transform="translate(-407.06 -15.49)" style="fill:#fff;stroke:#000;stroke-miterlimit:10;stroke-width:18px"/><path d="M1181.3,249.13V362.84a238.09,238.09,0,0,0-27.17-22.71v-91Z" transform="translate(-407.06 -15.49)" style="fill:#fff;stroke:#000;stroke-miterlimit:10;stroke-width:18px"/><path d="M827,249.13V389.69a237.09,237.09,0,0,0-25,40.93h-2.13V249.13Z" transform="translate(-407.06 -15.49)" style="fill:#fff;stroke:#000;stroke-miterlimit:10;stroke-width:18px"/><path d="M1232.54,249.13V430.62h-2.41A237,237,0,0,0,1205.37,390V249.13Z" transform="translate(-407.06 -15.49)" style="fill:#fff;stroke:#000;stroke-miterlimit:10;stroke-width:18px"/></g><g id="Layer_3" data-name="Layer 3"><ellipse cx="511.99" cy="493.41" rx="40.95" ry="50" style="fill:#fff;stroke:#000;stroke-miterlimit:10;stroke-width:18px"/><ellipse cx="696.34" cy="493.41" rx="40.95" ry="50" style="fill:#fff;stroke:#000;stroke-miterlimit:10;stroke-width:18px"/><path d="M1154.13,642.21c0,22.67-61.79,41-138,41s-138-18.37-138-41Z" transform="translate(-407.06 -15.49)" style="fill:#fff;stroke:#000;stroke-miterlimit:10;stroke-width:18px"/><line x1="747.07" y1="626.72" x2="471.04" y2="626.72" style="fill:none;stroke:#000;stroke-miterlimit:10;stroke-width:18px"/></g></svg>